<?xml version="1.0" encoding="UTF-8"?><svg id="Layer_2" xmlns="http://www.w3.org/2000/svg" viewBox="0 0 52 104"><defs><style>.cls-1{fill:#424242;stroke:#424242;stroke-miterlimit:10;}</style></defs><polygon class="cls-1" points="21.5 10.5 13.5 10.5 10.5 10.5 10.5 13.5 10.5 21.5 13.5 21.5 13.5 13.5 21.5 13.5 21.5 10.5"/><polygon class="cls-1" points="30.5 10.5 38.5 10.5 41.5 10.5 41.5 13.5 41.5 21.5 38.5 21.5 38.5 13.5 30.5 13.5 30.5 10.5"/><polygon class="cls-1" points="21.5 41.5 13.5 41.5 10.5 41.5 10.5 38.5 10.5 30.5 13.5 30.5 13.5 38.5 21.5 38.5 21.5 41.5"/><polygon class="cls-1" points="30.5 41.5 38.5 41.5 41.5 41.5 41.5 38.5 41.5 30.5 38.5 30.5 38.5 38.5 30.5 38.5 30.5 41.5"/><polygon class="cls-1" points="41.5 82.5 33.5 82.5 30.5 82.5 30.5 85.5 30.5 93.5 33.5 93.5 33.5 85.5 41.5 85.5 41.5 82.5"/><polygon class="cls-1" points="10.5 82.5 18.5 82.5 21.5 82.5 21.5 85.5 21.5 93.5 18.5 93.5 18.5 85.5 10.5 85.5 10.5 82.5"/><polygon class="cls-1" points="41.5 73.5 33.5 73.5 30.5 73.5 30.5 70.5 30.5 62.5 33.5 62.5 33.5 70.5 41.5 70.5 41.5 73.5"/><polygon class="cls-1" points="10.5 73.5 18.5 73.5 21.5 73.5 21.5 70.5 21.5 62.5 18.5 62.5 18.5 70.5 10.5 70.5 10.5 73.5"/></svg>